# xmcd CD database file
#
# Track frame offsets:
#	150
#	9757
#	19027
#	29707
#	40970
#
# Disc length: 586 seconds
#
# Revision: 1
# Processed by: cddbd v1.5.1PL0 Copyright (c) Steve Scherf et al.
# Submitted via: CDex 1.51
#
DISCID=31024805
DTITLE=Various Artist - Cocoloni utao! A Song in Your Pocket - from UNITED ARROWS
DYEAR=1999
DGENRE=Jazz
TTITLE0=PIANO SOLO
TTITLE1=BAND
TTITLE2=ORGAN
TTITLE3=TRIO
TTITLE4=WHISTLE
EXTD=YEAR: 1999
EXTT0=
EXTT1=
EXTT2=
EXTT3=
EXTT4=
PLAYORDER=
